<svg xmlns="http://www.w3.org/2000/svg" viewBox="0 0 829.83 261.94"><defs><style>.cls-1{fill:#8ae000;}</style></defs><g id="Layer_2" data-name="Layer 2"><g id="Layer_1-2" data-name="Layer 1"><g id="Layer_2-2" data-name="Layer 2"><g id="Layer_1-2-2" data-name="Layer 1-2"><path class="cls-1" d="M0,261.93V66.05A66,66,0,0,1,66,0H241.76V66.29H66.29v129H242.48v66.65Z"/><rect class="cls-1" x="65.36" y="103.76" width="133.31" height="50.08"/><path class="cls-1" d="M476,261.93,414.75,192H349.89a55.85,55.85,0,0,1,55.85-55.84h38.19c22,0,35.31-13.69,35.31-34.95,0-21.62-13.33-34.95-35.31-34.95H340.83V261.93h-66.3V0h169.4C507,0,544.45,38.55,544.45,98.72c0,42.87-20.18,71.7-52.24,84.67l78.18,78.54Z"/><path class="cls-1" d="M600,261.93V0H782.89a46.94,46.94,0,0,1,46.94,46.93V66.29H666.25V261.93Z"/><rect class="cls-1" x="666.32" y="107.01" width="120.7" height="54.76"/></g></g></g></g></svg>