<svg xmlns="http://www.w3.org/2000/svg" viewBox="0 0 399 853"><defs><style>.cls-1{fill:#a1ff0a;}.cls-2{fill:#8ae000;}</style></defs><g id="Layer_2" data-name="Layer 2"><g id="Layer_1-2" data-name="Layer 1"><polygon class="cls-1" points="247 853 247 117 0 83 0 817 247 853"/><polygon class="cls-2" points="247 117 399 35 399 770 247 853 247 117"/><polygon points="399 35 154 0 0 83 247 117 399 35"/><polygon class="cls-2" points="217 814.69 166 807.26 166 755.72 217 763.79 217 814.69"/><polygon class="cls-2" points="147 804.69 96 797.26 96 745.72 147 753.79 147 804.69"/><polygon class="cls-2" points="77 794.69 26 787.26 26 735.72 77 743.79 77 794.69"/><polygon class="cls-2" points="217 745.69 166 738.26 166 686.72 217 694.79 217 745.69"/><polygon class="cls-2" points="147 735.69 96 728.26 96 676.72 147 684.79 147 735.69"/><polygon class="cls-2" points="77 725.69 26 718.26 26 666.72 77 674.79 77 725.69"/><polygon class="cls-2" points="217 676.69 166 669.26 166 617.72 217 625.79 217 676.69"/><polygon class="cls-2" points="147 666.69 96 659.26 96 607.72 147 615.79 147 666.69"/><polygon class="cls-2" points="77 656.69 26 649.26 26 597.72 77 605.79 77 656.69"/><polygon class="cls-2" points="217 607.69 166 600.26 166 548.72 217 556.79 217 607.69"/><polygon class="cls-2" points="147 597.69 96 590.26 96 538.72 147 546.79 147 597.69"/><polygon class="cls-2" points="77 587.69 26 580.26 26 528.72 77 536.79 77 587.69"/><polygon class="cls-2" points="217 538.69 166 531.26 166 479.72 217 487.79 217 538.69"/><polygon class="cls-2" points="147 528.69 96 521.26 96 469.72 147 477.79 147 528.69"/><polygon class="cls-2" points="77 518.69 26 511.26 26 459.72 77 467.79 77 518.69"/><polygon class="cls-2" points="217 469.69 166 462.26 166 410.72 217 418.79 217 469.69"/><polygon class="cls-2" points="147 459.69 96 452.26 96 400.72 147 408.79 147 459.69"/><polygon class="cls-2" points="77 449.69 26 442.26 26 390.72 77 398.79 77 449.69"/><polygon class="cls-2" points="217 400.69 166 393.26 166 341.72 217 349.79 217 400.69"/><polygon class="cls-2" points="147 390.69 96 383.26 96 331.72 147 339.79 147 390.69"/><polygon class="cls-2" points="77 380.69 26 373.26 26 321.72 77 329.79 77 380.69"/><polygon class="cls-2" points="217 331.69 166 324.26 166 272.72 217 280.79 217 331.69"/><polygon class="cls-2" points="147 321.69 96 314.26 96 262.72 147 270.79 147 321.69"/><polygon class="cls-2" points="77 311.69 26 304.26 26 252.72 77 260.79 77 311.69"/><polygon class="cls-1" points="262 813 298.31 792.99 298.31 741.69 262 759.69 262 813"/><polygon class="cls-1" points="308 787.69 343 769.06 343 721 308 737.74 308 787.69"/><polygon class="cls-1" points="353 765.69 387 747.06 387 699 353 715.74 353 765.69"/><polygon class="cls-1" points="263 682 299.31 661.99 299.31 610.69 263 628.69 263 682"/><polygon class="cls-1" points="309 656.69 344 638.06 344 590 309 606.74 309 656.69"/><polygon class="cls-1" points="354 634.69 388 616.06 388 568 354 584.74 354 634.69"/><polygon class="cls-1" points="263 749 299.31 728.99 299.31 677.69 263 695.69 263 749"/><polygon class="cls-1" points="309 723.69 344 705.06 344 657 309 673.74 309 723.69"/><polygon class="cls-1" points="354 701.69 388 683.06 388 635 354 651.74 354 701.69"/><polygon class="cls-1" points="262 542 298.31 521.99 298.31 470.69 262 488.69 262 542"/><polygon class="cls-1" points="308 516.69 343 498.06 343 450 308 466.74 308 516.69"/><polygon class="cls-1" points="353 494.69 387 476.06 387 428 353 444.74 353 494.69"/><polygon class="cls-1" points="263 472 299.31 451.99 299.31 400.69 263 418.69 263 472"/><polygon class="cls-1" points="309 446.69 344 428.06 344 380 309 396.74 309 446.69"/><polygon class="cls-1" points="354 424.69 388 406.06 388 358 354 374.74 354 424.69"/><polygon class="cls-1" points="263 402 299.31 381.99 299.31 330.69 263 348.69 263 402"/><polygon class="cls-1" points="309 376.69 344 358.06 344 310 309 326.74 309 376.69"/><polygon class="cls-1" points="354 354.69 388 336.06 388 288 354 304.74 354 354.69"/><polygon class="cls-1" points="264 333 300.31 312.99 300.31 261.69 264 279.69 264 333"/><polygon class="cls-1" points="310 307.69 345 289.06 345 241 310 257.74 310 307.69"/><polygon class="cls-1" points="355 285.69 389 267.06 389 219 355 235.74 355 285.69"/><polygon class="cls-1" points="263 612 299.31 591.99 299.31 540.69 263 558.69 263 612"/><polygon class="cls-1" points="309 586.69 344 568.06 344 520 309 536.74 309 586.69"/><polygon class="cls-1" points="354 564.69 388 546.06 388 498 354 514.74 354 564.69"/></g></g></svg>